<svg xmlns="http://www.w3.org/2000/svg" viewBox="0 0 48 60" x="0px" y="0px"><path d="M15.93,18a1,1,0,0,0-1.41,0l-4.24,4.24a1,1,0,0,0,0,1.41l4.25,4.24a1,1,0,0,0,1.41,0,1,1,0,0,0,0-1.41L13.41,24h9.08a1,1,0,0,0,0-2H13.4l2.53-2.53A1,1,0,0,0,15.93,18Z"/><path d="M26.16,39.63a1.91,1.91,0,0,0,.84.19,2,2,0,0,0,1.29-.49l5-4.29a2,2,0,0,0,.69-1.5V14a3.94,3.94,0,0,0-1.18-2.82h0s0-.05-.06-.06A3.92,3.92,0,0,0,30,10H20a4,4,0,0,0-4,4v1a1,1,0,0,0,2,0V14a2,2,0,0,1,2-2H30l.27,0L26,15.63A3,3,0,0,0,25,17.91V34H20a2,2,0,0,1-2-2V31a1,1,0,0,0-2,0v1a4,4,0,0,0,4,4h5v1.82A2,2,0,0,0,26.16,39.63ZM27,17.91a1,1,0,0,1,.35-.76l4.52-3.87A2.13,2.13,0,0,1,32,14V33.52l-5,4.29Z"/></svg>