<svg xmlns="http://www.w3.org/2000/svg" xmlns:xlink="http://www.w3.org/1999/xlink" xmlns:serif="http://www.serif.com/" viewBox="0 0 32 32" version="1.1" xml:space="preserve" style="" x="0px" y="0px" fill-rule="evenodd" clip-rule="evenodd" stroke-linejoin="round" stroke-miterlimit="2"><g transform="matrix(1,0,0,1,-48,-144)"><path d="M50.172,159.44L50.096,159.572L50.089,159.588C50.029,159.72 50,159.86 50,160C50,160.139 50.029,160.28 50.089,160.412L50.172,160.56C53.675,165.738 58.002,169 64,169C69.998,169 74.325,165.738 77.828,160.56C78.057,160.222 78.057,159.778 77.828,159.44C74.325,154.262 69.998,151 64,151C58.002,151 53.675,154.262 50.172,159.44ZM52.217,160C55.241,164.261 58.914,167 64,167C69.086,167 72.758,164.261 75.783,160C72.758,155.739 69.086,153 64,153C58.914,153 55.241,155.739 52.217,160ZM64,154C60.689,154 58,156.689 58,160C58,163.311 60.689,166 64,166C67.311,166 70,163.311 70,160C70,156.689 67.311,154 64,154ZM64,156C66.208,156 68,157.792 68,160C68,162.208 66.208,164 64,164C61.792,164 60,162.208 60,160C60,157.792 61.792,156 64,156Z" fill="#e20049"/></g></svg>