<svg xmlns:dc="http://purl.org/dc/elements/1.1/" xmlns:cc="http://creativecommons.org/ns#" xmlns:rdf="http://www.w3.org/1999/02/22-rdf-syntax-ns#" xmlns:svg="http://www.w3.org/2000/svg" xmlns="http://www.w3.org/2000/svg" xmlns:sodipodi="http://sodipodi.sourceforge.net/DTD/sodipodi-0.dtd" xmlns:inkscape="http://www.inkscape.org/namespaces/inkscape" viewBox="0 0 8.4666664 8.5" version="1.1" x="0px" y="0px"><g><path style="color:#000000;font-variant-ligatures:normal;font-variant-position:normal;font-variant-caps:normal;font-variant-numeric:normal;font-variant-alternates:normal;font-variant-east-asian:normal;font-feature-settings:normal;font-variation-settings:normal;text-indent:0;text-decoration-line:none;text-decoration-style:solid;text-decoration-color:#000000;text-transform:none;direction:ltr;text-orientation:mixed;dominant-baseline:auto;baseline-shift:baseline;white-space:normal;shape-padding:0;shape-margin:0;inline-size:0;isolation:auto;mix-blend-mode:normal;color-interpolation:sRGB;color-interpolation-filters:linearRGB;solid-color:#000000;solid-opacity:1;vector-effect:none;color-rendering:auto;image-rendering:auto;shape-rendering:auto;enable-background:accumulate;" d="M 3.4386324,1.0743392 1.3273041,2.1602767 c -0.05326,0.0274 -0.1219644,0.068716 -0.1816406,0.1445312 -0.059676,0.075816 -0.097656,0.1875369 -0.097656,0.2949219 v 3.6367188 c 0,0.2112076 0.1532396,0.3996421 0.3164063,0.4550781 l 2.1113286,0.7167969 c 0.08789,0.02986 0.196021,0.013352 0.265625,-0.025391 0.0696,-0.038743 0.109281,-0.087888 0.138671,-0.1347656 0.05878,-0.093754 0.08203,-0.187365 0.08203,-0.2929687 V 1.5118392 c 0,-0.1073855 -0.02179,-0.1996033 -0.08008,-0.2949219 -0.02915,-0.047659 -0.06867,-0.099674 -0.146484,-0.140625 -0.07781,-0.040951 -0.209295,-0.047011 -0.296875,-0.00195 z m -0.0059,0.5976563 V 6.8341048 L 1.5773041,6.2032455 V 2.6270736 Z" clip-rule="nonzero" display="inline" overflow="visible" visibility="visible" fill="#000000" fill-opacity="1" fill-rule="nonzero" stroke="none" stop-color="#000000"/><path style="color:#000000;font-variant-ligatures:normal;font-variant-position:normal;font-variant-caps:normal;font-variant-numeric:normal;font-variant-alternates:normal;font-variant-east-asian:normal;font-feature-settings:normal;font-variation-settings:normal;text-indent:0;text-decoration-line:none;text-decoration-style:solid;text-decoration-color:#000000;text-transform:none;direction:ltr;text-orientation:mixed;dominant-baseline:auto;baseline-shift:baseline;white-space:normal;shape-padding:0;shape-margin:0;inline-size:0;isolation:auto;mix-blend-mode:normal;color-interpolation:sRGB;color-interpolation-filters:linearRGB;solid-color:#000000;solid-opacity:1;vector-effect:none;color-rendering:auto;image-rendering:auto;shape-rendering:auto;enable-background:accumulate;" d="m 4.0069914,1.7286361 a 0.26458332,0.26458332 0 0 0 -0.263672,0.265625 0.26458332,0.26458332 0 0 0 0.263672,0.2636718 h 1.089844 v 3.921875 h -1.089844 a 0.26458332,0.26458332 0 0 0 -0.263672,0.2636719 0.26458332,0.26458332 0 0 0 0.263672,0.265625 h 1.246094 c 0.120789,0 0.224903,-0.065758 0.285156,-0.1425781 0.06025,-0.07682 0.08789,-0.1674441 0.08789,-0.2617188 v -4.171875 c 0,-0.094275 -0.02764,-0.1848986 -0.08789,-0.2617187 -0.06025,-0.07682 -0.164369,-0.1425781 -0.285156,-0.1425781 z" clip-rule="nonzero" display="inline" overflow="visible" visibility="visible" fill="#000000" fill-opacity="1" fill-rule="nonzero" stroke="none" stop-color="#000000"/><path style="color:#000000;font-variant-ligatures:normal;font-variant-position:normal;font-variant-caps:normal;font-variant-numeric:normal;font-variant-alternates:normal;font-variant-east-asian:normal;font-feature-settings:normal;font-variation-settings:normal;text-indent:0;text-decoration-line:none;text-decoration-style:solid;text-decoration-color:#000000;text-transform:none;direction:ltr;text-orientation:mixed;dominant-baseline:auto;baseline-shift:baseline;white-space:normal;shape-padding:0;shape-margin:0;inline-size:0;isolation:auto;mix-blend-mode:normal;color-interpolation:sRGB;color-interpolation-filters:linearRGB;solid-color:#000000;solid-opacity:1;vector-effect:none;color-rendering:auto;image-rendering:auto;shape-rendering:auto;enable-background:accumulate;" d="m 6.2491794,3.0001205 a 0.2645835,0.2645835 0 0 0 -0.179688,0.074219 0.2645835,0.2645835 0 0 0 -0.0039,0.375 l 0.449219,0.4628906 0.255859,0.2675781 -0.259765,0.21875 -0.47461,0.3945313 a 0.2645835,0.2645835 0 0 0 -0.0332,0.3730469 0.2645835,0.2645835 0 0 0 0.371094,0.035156 l 0.476566,-0.3964845 a 0.26460996,0.26460996 0 0 0 0.002,-0.00195 l 0.47266,-0.4023468 a 0.26460996,0.26460996 0 0 0 0.02148,-0.3828125 L 6.8976164,3.5469955 a 0.26460996,0.26460996 0 0 0 -0.0019,-0.00195 L 6.4444914,3.0801986 a 0.2645835,0.2645835 0 0 0 -0.195312,-0.080078 z" clip-rule="nonzero" display="inline" overflow="visible" visibility="visible" fill="#000000" fill-opacity="1" fill-rule="nonzero" stroke="none" stop-color="#000000"/><path style="color:#000000;font-variant-ligatures:normal;font-variant-position:normal;font-variant-caps:normal;font-variant-numeric:normal;font-variant-alternates:normal;font-variant-east-asian:normal;font-feature-settings:normal;font-variation-settings:normal;text-indent:0;text-decoration-line:none;text-decoration-style:solid;text-decoration-color:#000000;text-transform:none;direction:ltr;text-orientation:mixed;dominant-baseline:auto;baseline-shift:baseline;white-space:normal;shape-padding:0;shape-margin:0;inline-size:0;isolation:auto;mix-blend-mode:normal;color-interpolation:sRGB;color-interpolation-filters:linearRGB;solid-color:#000000;solid-opacity:1;vector-effect:none;color-rendering:auto;image-rendering:auto;shape-rendering:auto;enable-background:accumulate;" d="m 4.5753514,3.8868392 a 0.26458299,0.26458299 0 0 0 -0.263672,0.265625 0.26458299,0.26458299 0 0 0 0.263672,0.2636719 h 2.378906 a 0.26458299,0.26458299 0 0 0 0.265625,-0.2636719 0.26458299,0.26458299 0 0 0 -0.265625,-0.265625 z" clip-rule="nonzero" display="inline" overflow="visible" visibility="visible" fill="#000000" fill-opacity="1" fill-rule="nonzero" stroke="none" stop-color="#000000"/><ellipse style="" cx="2.8910902" cy="4.1518369" rx="0.28444391" ry="0.28033486" fill="#000000" fill-opacity="1" stroke="none"/></g></svg>