<svg xmlns="http://www.w3.org/2000/svg" data-name="Layer 2" viewBox="0 0 50 62.5" x="0px" y="0px"><path d="M44,9.5H6c-2.21,0-4,1.79-4,4v23c0,2.21,1.79,4,4,4H44c2.21,0,4-1.79,4-4V13.5c0-2.21-1.79-4-4-4Zm2,27c0,1.1-.9,2-2,2H6c-1.1,0-2-.9-2-2V13.5c0-1.1,.9-2,2-2H44c1.1,0,2,.9,2,2v23Zm-27.6-13.13c.45-.72,.71-1.56,.71-2.46,0-2.59-2.11-4.7-4.7-4.7s-4.7,2.11-4.7,4.7c0,.91,.27,1.74,.71,2.46-2.66,1.29-4.42,4-4.42,7.05v2.66c0,.55,.45,1,1,1h14.82c.55,0,1-.45,1-1v-2.66c0-3.05-1.76-5.76-4.42-7.05Zm-3.99-5.17c1.49,0,2.7,1.21,2.7,2.7s-1.21,2.7-2.7,2.7-2.7-1.21-2.7-2.7,1.21-2.7,2.7-2.7Zm6.41,13.87H8v-1.66c0-2.51,1.61-4.71,3.95-5.51,.72,.44,1.55,.71,2.45,.71s1.74-.27,2.45-.71c2.35,.8,3.96,3,3.96,5.51v1.66ZM43,15.5H26c-.55,0-1,.45-1,1v5c0,.55,.45,1,1,1h17c.55,0,1-.45,1-1v-5c0-.55-.45-1-1-1Zm-1,5h-15v-3h15v3Zm2,5c0,.55-.45,1-1,1H26c-.55,0-1-.45-1-1s.45-1,1-1h17c.55,0,1,.45,1,1Zm0,4c0,.55-.45,1-1,1H26c-.55,0-1-.45-1-1s.45-1,1-1h17c.55,0,1,.45,1,1Zm0,4c0,.55-.45,1-1,1H26c-.55,0-1-.45-1-1s.45-1,1-1h17c.55,0,1,.45,1,1Z"/><text x="0" y="65" fill="#000000" font-size="5px" font-weight="bold" font-family="'Helvetica Neue', Helvetica, Arial-Unicode, Arial, Sans-serif">Created by Syahrul Hidayatullah</text><text x="0" y="70" fill="#000000" font-size="5px" font-weight="bold" font-family="'Helvetica Neue', Helvetica, Arial-Unicode, Arial, Sans-serif">from the Noun Project</text></svg>