<svg xmlns="http://www.w3.org/2000/svg" viewBox="0 0 18 20" x="0px" y="0px"><title>10</title><g data-name="Layer 2"><g data-name="Layer 1"><path d="M17.6,6.2l-8-6A1,1,0,0,0,8.4.2l-8,6A1,1,0,0,0,1.6,7.8L2,7.5V15a1,1,0,0,0,1,1H15a1,1,0,0,0,1-1V7.5l.4.3a1,1,0,0,0,1.2-1.6ZM8,14V10h2v4Zm6-8v8H12V9a1,1,0,0,0-1-1H7A1,1,0,0,0,6,9v5H4V6H4L9,2.25,14,6Z"/></g></g><text x="0" y="31" fill="#000000" font-size="5px" font-weight="bold" font-family="'Helvetica Neue', Helvetica, Arial-Unicode, Arial, Sans-serif">Created by behnamsobhkhiz</text><text x="0" y="36" fill="#000000" font-size="5px" font-weight="bold" font-family="'Helvetica Neue', Helvetica, Arial-Unicode, Arial, Sans-serif">from the Noun Project</text></svg>