<svg xmlns="http://www.w3.org/2000/svg" data-name="Layer 1" viewBox="0 0 88 90" x="0px" y="0px"><title>Home_1</title><path d="M39.76,14.35a6.55,6.55,0,0,1,8.59,0L72.9,35.63a6.88,6.88,0,0,1,2.35,5.19V68.45a6.73,6.73,0,0,1-6.65,6.8H19.4a6.73,6.73,0,0,1-6.65-6.8V40.82a6.84,6.84,0,0,1,2.36-5.19ZM45.35,18a2,2,0,0,0-2.6,0L18.1,39.25a2.09,2.09,0,0,0-.71,1.57V68.45a2,2,0,0,0,2,2.06H68.6a2,2,0,0,0,2-2.06V40.82a2.07,2.07,0,0,0-.71-1.57Z" fill="#e20049"/><path d="M44,33.46a8.53,8.53,0,0,1,8.44,8.62,8.69,8.69,0,0,1-3.32,6.86c7.26,2.13,10,8.83,10.48,14.26,0,.56,0,1.65-1.58,1.64H30c-1.86,0-1.64-1.2-1.58-1.83.5-5.38,3.28-12,10.46-14.08a8.69,8.69,0,0,1-3.32-6.86A8.53,8.53,0,0,1,44,33.46ZM44,53c-5.45,0-8.87,2.76-10.28,7l0,.16H54.34l-.05-.16c-1.38-4.09-4.65-6.8-9.85-6.95H44ZM44,38.2a3.88,3.88,0,1,0,3.8,3.88A3.84,3.84,0,0,0,44,38.2Z" fill="#e20049"/></svg>