<svg xmlns="http://www.w3.org/2000/svg" xmlns:xlink="http://www.w3.org/1999/xlink" xmlns:serif="http://www.serif.com/" viewBox="0 0 32 40" version="1.1" xml:space="preserve" style="" x="0px" y="0px" fill-rule="evenodd" clip-rule="evenodd" stroke-linejoin="round" stroke-miterlimit="2"><g transform="matrix(1,0,0,1,-96,-144)"><path d="M118.219,152.367C116.36,151.481 114.303,151 112,151C106.002,151 101.675,154.262 98.172,159.44L98.096,159.572L98.089,159.588C98.029,159.72 98,159.86 98,160C98,160.139 98.029,160.28 98.089,160.412L98.172,160.56C99.879,163.083 101.781,165.151 103.977,166.609L101.293,169.293C100.903,169.683 100.903,170.317 101.293,170.707C101.683,171.097 102.317,171.097 102.707,170.707L105.781,167.633C107.64,168.519 109.697,169 112,169C117.998,169 122.325,165.738 125.828,160.56C126.057,160.222 126.057,159.778 125.828,159.44C124.121,156.917 122.219,154.849 120.023,153.391L122.707,150.707C123.097,150.317 123.097,149.683 122.707,149.293C122.317,148.903 121.683,148.903 121.293,149.293L118.219,152.367ZM118.571,154.844L116.89,156.524C117.589,157.505 118,158.705 118,160C118,163.311 115.311,166 112,166C110.705,166 109.505,165.589 108.524,164.89L107.304,166.111C108.728,166.688 110.284,167 112,167C117.086,167 120.758,164.261 123.783,160C122.246,157.835 120.542,156.063 118.571,154.844ZM116.696,153.889C115.272,153.312 113.716,153 112,153C106.914,153 103.241,155.739 100.217,160C101.754,162.165 103.458,163.937 105.429,165.156L107.11,163.476C106.411,162.495 106,161.295 106,160C106,156.689 108.689,154 112,154C113.295,154 114.495,154.411 115.476,155.11L116.696,153.889ZM115.446,157.968C115.798,158.564 116,159.259 116,160C116,162.208 114.208,164 112,164C111.259,164 110.564,163.798 109.968,163.446L115.446,157.968ZM114.032,156.554L108.554,162.032C108.202,161.436 108,160.741 108,160C108,157.792 109.792,156 112,156C112.741,156 113.436,156.202 114.032,156.554Z"/></g><text x="0" y="47" fill="#000000" font-size="5px" font-weight="bold" font-family="'Helvetica Neue', Helvetica, Arial-Unicode, Arial, Sans-serif">Created by Mila Karmila</text><text x="0" y="52" fill="#000000" font-size="5px" font-weight="bold" font-family="'Helvetica Neue', Helvetica, Arial-Unicode, Arial, Sans-serif">from the Noun Project</text></svg>