<svg xmlns:dc="http://purl.org/dc/elements/1.1/" xmlns:cc="http://creativecommons.org/ns#" xmlns:rdf="http://www.w3.org/1999/02/22-rdf-syntax-ns#" xmlns:svg="http://www.w3.org/2000/svg" xmlns="http://www.w3.org/2000/svg" xmlns:sodipodi="http://sodipodi.sourceforge.net/DTD/sodipodi-0.dtd" xmlns:inkscape="http://www.inkscape.org/namespaces/inkscape" viewBox="0 0 10.583333 10.6" version="1.1" x="0px" y="0px"><svg:g><svg:path style="color:#000000;font-style:normal;font-variant:normal;font-weight:normal;font-stretch:normal;font-size:medium;line-height:normal;font-family:sans-serif;font-variant-ligatures:normal;font-variant-position:normal;font-variant-caps:normal;font-variant-numeric:normal;font-variant-alternates:normal;font-feature-settings:normal;text-indent:0;text-align:start;text-decoration:none;text-decoration-line:none;text-decoration-style:solid;text-decoration-color:#000000;letter-spacing:normal;word-spacing:normal;text-transform:none;writing-mode:lr-tb;direction:ltr;text-orientation:mixed;dominant-baseline:auto;baseline-shift:baseline;text-anchor:start;white-space:normal;shape-padding:0;clip-rule:nonzero;display:inline;overflow:visible;visibility:visible;opacity:1;isolation:auto;mix-blend-mode:normal;color-interpolation:sRGB;color-interpolation-filters:linearRGB;solid-color:#000000;solid-opacity:1;vector-effect:none;fill:#ffffff;fill-opacity:1;fill-rule:nonzero;stroke:none;stroke-width:0.52916676;stroke-linecap:butt;stroke-linejoin:round;stroke-miterlimit:4;stroke-dasharray:none;stroke-dashoffset:0;stroke-opacity:1;color-rendering:auto;image-rendering:auto;shape-rendering:auto;text-rendering:auto;enable-background:accumulate" d="m 7.7800829,1.3472042 c -0.9468908,0 -1.7424823,0.661488 -1.9533685,1.545125 H 2.9054446 L 2.7018398,2.1151152 A 0.26460987,0.26460987 0 0 0 2.4460433,1.9177122 H 1.06318 a 0.26460987,0.26460987 0 0 0 -0.025321,0 0.26495232,0.26495232 0 0 0 0.025321,0.529167 h 1.177708 l 1.0092399,3.842141 c -0.231566,0.116314 -0.3937741,0.354291 -0.3937741,0.628386 0,0.385918 0.318979,0.705384 0.7048659,0.705384 h 4.1366995 a 0.2646485,0.2646485 0 0 0 0,-0.529166 H 3.5612197 c -0.1021001,0 -0.1756993,-0.07452 -0.1756993,-0.176218 0,-0.101698 0.073599,-0.175699 0.1756993,-0.175699 h 3.4276982 0.7363883 a 0.26460987,0.26460987 0 0 0 0.2521823,-0.185518 l 0.4015237,-1.282092 c 0.8167053,-0.255362 1.4128353,-1.018892 1.4128353,-1.917197 0,-1.106525 -0.90474,-2.009696 -2.0117646,-2.009696 z m 0,0.529167 c 0.8212508,0 1.482598,0.660196 1.482598,1.480529 0,0.702686 -0.4857036,1.285184 -1.1410157,1.438156 a 0.26501016,0.26501016 0 0 0 -0.03824,0.0098 c -0.097824,0.02009 -0.1993688,0.03049 -0.3033421,0.03049 -0.8212482,0 -1.480529,-0.658129 -1.480529,-1.478462 0,-0.820333 0.6592808,-1.480529 1.480529,-1.480529 z M 8.645146,2.5326622 A 0.26460987,0.26460987 0 0 0 8.4637636,2.6112092 L 7.5087818,3.5465532 7.0984712,3.1481282 a 0.26519777,0.26519777 0 0 0 -0.3689694,0.380854 l 0.5973789,0.57826 a 0.26460987,0.26460987 0 0 0 0.3689694,-0.0021 L 8.8327329,2.9879312 A 0.26460987,0.26460987 0 0 0 8.645146,2.5326622 Z m -5.6006893,0.888833 h 2.7290315 c 0.034562,1.076571 0.9213559,1.943553 2.0065947,1.943553 0.00523,0 0.010279,-9.95e-4 0.015505,-0.001 L 7.5299696,6.2125402 H 6.9889179 3.7761936 Z m 1.20251,4.316534 c -0.410628,0 -0.7498265,0.337117 -0.7498265,0.747758 0,0.410639 0.3391985,0.75034 0.7498265,0.750342 0.4106254,0 0.7477575,-0.339703 0.7477575,-0.750342 0,-0.410641 -0.3371321,-0.747758 -0.7477575,-0.747758 z m 2.5176745,0 c -0.4106254,0 -0.7503425,0.337117 -0.7503425,0.747758 0,0.410639 0.3397171,0.75034 0.7503425,0.750342 0.410628,0 0.7477574,-0.339703 0.7477574,-0.750342 0,-0.410641 -0.3371294,-0.747758 -0.7477574,-0.747758 z m -2.5176745,0.529167 c 0.1248595,0 0.2206572,0.09415 0.2206572,0.218591 0,0.124439 -0.095795,0.220657 -0.2206572,0.220657 -0.1248621,0 -0.2206598,-0.09622 -0.2206598,-0.220657 0,-0.124442 0.095795,-0.218591 0.2206598,-0.218591 z m 2.5176745,0 c 0.1248621,0 0.2185908,0.09415 0.2185908,0.218591 0,0.124439 -0.093731,0.220657 -0.2185908,0.220657 -0.1248596,0 -0.2206572,-0.09622 -0.2206572,-0.220657 0,-0.124442 0.095795,-0.218591 0.2206572,-0.218591 z"/></svg:g></svg>