<svg xmlns="http://www.w3.org/2000/svg" xmlns:xlink="http://www.w3.org/1999/xlink" version="1.1" x="0px" y="0px" viewBox="0 0 100 100" enable-background="new 0 0 100 100" xml:space="preserve"><g><g><path fill="#000000" d="M62.131,79.564c0-2.236,1.855-4.091,4.091-4.091h7.309v-7.255c0-2.291,1.8-4.091,4.091-4.091    c2.236,0,4.091,1.8,4.091,4.091v7.255h7.255c2.236,0,4.091,1.855,4.091,4.091s-1.855,4.091-4.091,4.091h-7.255v7.255    c0,2.291-1.855,4.091-4.091,4.091c-2.291,0-4.091-1.8-4.091-4.091v-7.255h-7.309c-1.091,0-2.127-0.436-2.891-1.2    C62.622,81.691,62.131,80.709,62.131,79.564z"/><path fill="#000000" d="M50.894,5c11.291,0,20.455,9.164,20.455,20.455v1.364h5.018c7.8,0,14.182,5.891,14.945,13.636    l1.745,18.818c0.164,2.291-1.473,4.255-3.709,4.473c-1.691,0.164-3.273-0.764-4.036-2.236c-0.218-0.436-0.382-0.927-0.436-1.473    l-1.745-18.818C82.858,37.673,79.913,35,76.367,35h-5.018v6.818c0,2.291-1.855,4.091-4.091,4.091c-2.291,0-4.091-1.8-4.091-4.091    V35H38.622v6.818c0,2.291-1.855,4.091-4.091,4.091c-2.291,0-4.091-1.8-4.091-4.091V35h-5.073c-3.491,0-6.382,2.618-6.764,6.218    L15.167,79.4l-0.055,0.655c0,3.709,3,6.764,6.818,6.764h36.927c2.291,0,4.091,1.855,4.091,4.091c0,2.291-1.8,4.091-4.091,4.091    H21.931c-8.345,0-15-6.764-15-14.945l0.055-1.418l3.436-38.127v-0.055c0.764-7.691,7.2-13.636,14.945-13.636h5.073v-1.364    C30.44,14.164,39.603,5,50.894,5z M63.167,25.455c-0.055-6.764-5.509-12.218-12.273-12.273    c-6.818,0.055-12.273,5.509-12.273,12.273v1.364h24.545V25.455z"/></g></g></svg>