<svg xmlns="http://www.w3.org/2000/svg" viewBox="0 0 32 32" x="0px" y="0px"><g><path d="M23,9.18427V9A7,7,0,0,0,9,9v.18427A2.99507,2.99507,0,0,0,7,12v8a3.00328,3.00328,0,0,0,3,3H22a3.00328,3.00328,0,0,0,3-3V12A2.99507,2.99507,0,0,0,23,9.18427ZM16,4a5.00588,5.00588,0,0,1,5,5H11A5.00588,5.00588,0,0,1,16,4Zm7,16a1.0013,1.0013,0,0,1-1,1H10a1.0013,1.0013,0,0,1-1-1V12a1.0013,1.0013,0,0,1,1-1H22a1.0013,1.0013,0,0,1,1,1Zm-5-5a1.99146,1.99146,0,0,1-1,1.7226V18a1,1,0,0,1-2,0V16.7226A1.99655,1.99655,0,1,1,18,15Zm6.1543,12.19531-1.22412.28809.84033,1.21191c.45183.621-.64682,1.40817-1.09229.76807l-.77978-1.2002-.792,1.21241c-.41992.62134-1.59281-.19518-1.03223-.792l.792-1.12841-1.248-.35987c-.77547-.21041-.32788-1.52608.43213-1.23584l1.25977.40772-.05957-1.22364c-.01161-.76531,1.30035-.77188,1.28369,0l-.04785,1.24756,1.272-.43164C24.46927,25.67721,24.937,27.03306,24.1543,27.19531Zm-5.89209,0-1.22412.28809.84033,1.21191c.45183.621-.64682,1.40817-1.09229.76807l-.77978-1.2002-.792,1.21241c-.41992.62134-1.59281-.19518-1.03223-.792l.792-1.12841-1.248-.35987c-.77547-.21041-.32788-1.52608.43213-1.23584l1.25977.40772-.05957-1.22364c-.01161-.76531,1.30035-.77188,1.28369,0l-.04785,1.24756,1.272-.43164C18.57718,25.67721,19.04491,27.03306,18.26221,27.19531Zm-5.89209,0L11.146,27.4834l.84033,1.21191c.45183.621-.64682,1.40817-1.09229.76807l-.77978-1.2002-.792,1.21241c-.41992.62134-1.59281-.19518-1.03223-.792l.792-1.12841-1.248-.35987c-.77547-.21041-.32788-1.52608.43213-1.23584l1.25977.40772-.05957-1.22364c-.01161-.76531,1.30035-.77188,1.28369,0l-.04785,1.24756,1.272-.43164C12.68509,25.67721,13.15282,27.03306,12.37012,27.19531Z" fill="#ffffff"/></g></svg>