<svg xmlns="http://www.w3.org/2000/svg" data-name="Layer 1" viewBox="0 0 100 100" x="0px" y="0px"><title>11</title><g data-name="Group"><path data-name="Compound Path" d="M40.79,1.49a16.06,16.06,0,0,0-16,16v6.25H13.6a3,3,0,0,0-3,3V80.44a9,9,0,0,0,9,9H50.7A21.28,21.28,0,1,0,71,56.14V26.78a3,3,0,0,0-3-3H56.85V17.53A16.06,16.06,0,0,0,40.79,1.49Zm-10,16a10.05,10.05,0,0,1,20.1,0v6.25H30.75ZM83.4,77.22A15.29,15.29,0,1,1,68.11,61.92,15.31,15.31,0,0,1,83.4,77.22ZM65,29.78v26.4A21.26,21.26,0,0,0,47.75,83.44H19.6a3,3,0,0,1-3-3V29.78h8.15v9.5a3,3,0,0,0,6,0v-9.5h20.1v9.5a3,3,0,0,0,6,0v-9.5Z"/><path data-name="Path" d="M65.11,69.49v4.73H60.38a3,3,0,0,0,0,6h4.73v4.73a3,3,0,0,0,6,0V80.22h4.73a3,3,0,1,0,0-6H71.11V69.49a3,3,0,0,0-6,0Z"/></g></svg>