<svg xmlns="http://www.w3.org/2000/svg" xmlns:xlink="http://www.w3.org/1999/xlink" version="1.1" x="0px" y="0px" viewBox="0 0 36 45" style="enable-background:new 0 0 36 36;" xml:space="preserve"><g><path d="M31.1796875,12.5419922c-0.2299805-2.1982422-1.4443359-4.1630859-3.3310547-5.390625   C25.5288086,5.6416016,22.4008789,5.625,20.0693359,7.1142578c-2.7641602,1.7646484-4.0107422,5.0224609-3.1699219,8.1005859   L5.8198242,26.2939453c-0.4086914,0.4091797-0.5664062,1.0097656-0.4116211,1.5664062s0.5986328,0.9892578,1.1586914,1.1289062   L10.3588867,29.9375c0.1645508,0.0419922,0.3330078,0.0615234,0.5009766,0.0615234   c0.3916016,0,0.7807617-0.109375,1.1157227-0.3212891c0.4780273-0.3037109,0.815918-0.7949219,0.9262695-1.3496094   l0.3886719-1.9423828l2.1845703-0.4375c0.96875-0.1933594,1.671875-1.0507812,1.671875-2.0390625v-1.2607422l2.9023438-0.5800781   c0.1933594-0.0390625,0.3710938-0.1337891,0.5107422-0.2734375l1.4609375-1.4599609   c2.5019531,0.6777344,5.2133789-0.0253906,7.0634766-1.875C30.6464844,16.8984375,31.4101562,14.7412109,31.1796875,12.5419922z    M27.6704102,17.0458984C26.2167969,18.5,24.0273438,18.9775391,22.0913086,18.2597656   c-0.362793-0.1357422-0.7773438-0.046875-1.0541992,0.2304688l-1.6772461,1.6767578l-3.4091797,0.6816406   c-0.4672852,0.09375-0.8037109,0.5039062-0.8037109,0.9804688v2.0800781c0,0.0380859-0.0263672,0.0703125-0.0639648,0.078125   l-2.8383789,0.5683594c-0.3959961,0.0791016-0.7050781,0.3886719-0.7841797,0.7841797l-0.5195312,2.5957031   c0,0-0.097168,0.0615234-0.097168,0.0625l-3.1186523-0.7802734l11.0195312-11.0195312   c0.2763672-0.2763672,0.3662109-0.6875,0.230957-1.0537109c-0.8740234-2.3623047,0.0180664-4.9707031,2.1699219-6.3447266   c1.6806641-1.0742188,3.9365234-1.0625,5.6123047,0.0273438c1.3793945,0.8974609,2.2661133,2.3271484,2.4331055,3.9238281   C29.3579102,14.3466797,28.8037109,15.9121094,27.6704102,17.0458984z"/><path d="M25.0078125,11.4863281c-0.390625-0.390625-1.0234375-0.390625-1.4140625,0s-0.390625,1.0234375,0,1.4140625   l0.7412109,0.7412109c0.1953125,0.1953125,0.4511719,0.2929688,0.7070312,0.2929688s0.5117188-0.0976562,0.7070312-0.2929688   c0.390625-0.390625,0.390625-1.0234375,0-1.4140625L25.0078125,11.4863281z"/></g><text x="0" y="51" fill="#000000" font-size="5px" font-weight="bold" font-family="'Helvetica Neue', Helvetica, Arial-Unicode, Arial, Sans-serif">Created by Dewanata Visuals</text><text x="0" y="56" fill="#000000" font-size="5px" font-weight="bold" font-family="'Helvetica Neue', Helvetica, Arial-Unicode, Arial, Sans-serif">from the Noun Project</text></svg>