<svg xmlns="http://www.w3.org/2000/svg" viewBox="0 0 24 30" fill="none" x="0px" y="0px"><path d="M8 17C8.55229 17 9 16.5523 9 16C9 15.4477 8.55229 15 8 15C7.44772 15 7 15.4477 7 16C7 16.5523 7.44772 17 8 17Z" fill="black"/><path d="M13 16C13 16.5523 12.5523 17 12 17C11.4477 17 11 16.5523 11 16C11 15.4477 11.4477 15 12 15C12.5523 15 13 15.4477 13 16Z" fill="black"/><path d="M16 17C16.5523 17 17 16.5523 17 16C17 15.4477 16.5523 15 16 15C15.4477 15 15 15.4477 15 16C15 16.5523 15.4477 17 16 17Z" fill="black"/><path fill-rule="evenodd" clip-rule="evenodd" d="M6 8V10C4.34315 10 3 11.3431 3 13V19C3 20.6569 4.34315 22 6 22H18C19.6569 22 21 20.6569 21 19V13C21 11.3431 19.6569 10 18 10V8C18 4.68629 15.3137 2 12 2C8.68629 2 6 4.68629 6 8ZM6 12H18C18.5523 12 19 12.4477 19 13V19C19 19.5523 18.5523 20 18 20H6C5.44772 20 5 19.5523 5 19V13C5 12.4477 5.44772 12 6 12ZM16 8V10H8V8C8 5.79086 9.79086 4 12 4C14.2091 4 16 5.79086 16 8Z" fill="black"/><text x="0" y="39" fill="#000000" font-size="5px" font-weight="bold" font-family="'Helvetica Neue', Helvetica, Arial-Unicode, Arial, Sans-serif">Created by HideMaru</text><text x="0" y="44" fill="#000000" font-size="5px" font-weight="bold" font-family="'Helvetica Neue', Helvetica, Arial-Unicode, Arial, Sans-serif">from the Noun Project</text></svg>