<svg xmlns="http://www.w3.org/2000/svg" xmlns:xlink="http://www.w3.org/1999/xlink" version="1.1" x="0px" y="0px" viewBox="0 0 100 125" enable-background="new 0 0 100 100" xml:space="preserve"><g><g><path fill="#000000" d="M72.309,80.545c3.982,0,7.2,3.273,7.2,7.255c0,3.982-3.218,7.2-7.2,7.2s-7.255-3.218-7.255-7.2    C65.055,83.818,68.327,80.545,72.309,80.545z"/><path fill="#000000" d="M45.036,80.545c3.982,0,7.2,3.273,7.2,7.255c0,3.982-3.218,7.2-7.2,7.2s-7.255-3.218-7.255-7.2    C37.782,83.818,41.055,80.545,45.036,80.545z"/><path fill="#000000" d="M67.509,43.236c2.236,0,4.091,1.855,4.091,4.091c0,2.236-1.855,4.091-4.091,4.091h-4.8v4.745    c0,2.291-1.8,4.091-4.091,4.091c-2.236,0-4.091-1.8-4.091-4.091v-4.745h-4.745c-2.291,0-4.091-1.855-4.091-4.091    c0-2.236,1.8-4.091,4.091-4.091h4.745v-4.8c0-2.236,1.855-4.091,4.091-4.091c2.291,0,4.091,1.855,4.091,4.091v4.8H67.509z"/><path fill="#000000" d="M86.764,34.345l0.055-0.709c0-2.182-1.8-4.091-4.091-4.091H31.236l5.345,32.073    C36.855,63.582,38.6,65,40.564,65H78.2c2.018,0,3.709-1.418,4.036-3.382L86.764,34.345z M82.727,21.364    C89.655,21.418,95,26.982,95,33.636c0,0.655-0.055,1.364-0.164,2.018l-4.527,27.273C89.327,68.873,84.2,73.182,78.2,73.182H40.564    c-5.727,0-10.582-3.873-11.836-9.382c-0.109-0.273-0.164-0.545-0.218-0.818v-0.055l-7.964-46.309    c-0.327-1.964-2.018-3.436-4.036-3.436H9.091C6.855,13.182,5,11.382,5,9.091C5,6.855,6.855,5,9.091,5h7.418    c6,0,11.127,4.309,12.109,10.255l1.036,6.109H82.727z"/></g></g><text x="0" y="115" fill="#000000" font-size="5px" font-weight="bold" font-family="'Helvetica Neue', Helvetica, Arial-Unicode, Arial, Sans-serif">Created by Viktor Ostrovsky</text><text x="0" y="120" fill="#000000" font-size="5px" font-weight="bold" font-family="'Helvetica Neue', Helvetica, Arial-Unicode, Arial, Sans-serif">from the Noun Project</text></svg>