<svg xmlns="http://www.w3.org/2000/svg" viewBox="0 0 256 320" x="0px" y="0px"><title>padlock, unlock, open, security,  password</title><g><path d="M128,149.81a15.4,15.4,0,0,0-10,27.11v14.93a5.6,5.6,0,0,0,5.6,5.6h8.8a5.6,5.6,0,0,0,5.6-5.6V176.92a15.4,15.4,0,0,0-10-27.11Z"/><path d="M72.77,69.64a55.24,55.24,0,0,1,110.47,0v44.23a38.43,38.43,0,0,1,30.31,37.55v44.42a38.4,38.4,0,0,1-38.4,38.4H80.86a38.4,38.4,0,0,1-38.4-38.4V151.42A38.4,38.4,0,0,1,80.86,113h82.38V69.64a35.24,35.24,0,0,0-70.47,0v6.23a5.6,5.6,0,0,1-5.6,5.6h-8.8a5.59,5.59,0,0,1-5.6-5.6ZM80.86,133h94.29a18.4,18.4,0,0,1,18.4,18.4v44.42a18.4,18.4,0,0,1-18.4,18.4H80.86a18.4,18.4,0,0,1-18.4-18.4V151.42A18.4,18.4,0,0,1,80.86,133Z" style="" fill-rule="evenodd"/><rect width="256" height="256" style="" fill="none"/></g><text x="0" y="271" fill="#000000" font-size="5px" font-weight="bold" font-family="'Helvetica Neue', Helvetica, Arial-Unicode, Arial, Sans-serif">Created by LAFS</text><text x="0" y="276" fill="#000000" font-size="5px" font-weight="bold" font-family="'Helvetica Neue', Helvetica, Arial-Unicode, Arial, Sans-serif">from the Noun Project</text></svg>