<svg xmlns="http://www.w3.org/2000/svg" viewBox="0 0 64 80" x="0px" y="0px"><title>Simple User Interface3</title><path d="M2,51H36.33A13.86,13.86,0,1,0,60,40.14V6a2,2,0,0,0-2-2H8A2,2,0,0,0,6,6v4H2a2,2,0,0,0-2,2V49A2,2,0,0,0,2,51Zm2-17,11.88-9.41L33.63,41.45A1.94,1.94,0,0,0,35,42a2,2,0,0,0,1.2-.4l6.89-5.17,1.29.84A13.89,13.89,0,0,0,36.57,47H4ZM50.14,59.73A9.87,9.87,0,1,1,60,49.86,9.88,9.88,0,0,1,50.14,59.73ZM10,8H56V37.32a13.74,13.74,0,0,0-2-.76V12a2,2,0,0,0-2-2H10Zm40,6V36h-.17l-5.75-3.7a2,2,0,0,0-2.28.08l-6.65,5L17.38,20.55a2,2,0,0,0-2.62-.12L4,29V14Z"/><path d="M40,30a7,7,0,1,0-7-7A7,7,0,0,0,40,30Zm0-10a3,3,0,1,1-3,3A3,3,0,0,1,40,20Z"/><path d="M52.14,47.86V43.39a2,2,0,0,0-4,0v4.47H43.66a2,2,0,0,0,0,4h4.48v4.48a2,2,0,0,0,4,0V51.86h4.47a2,2,0,0,0,0-4Z"/><text x="0" y="79" fill="#000000" font-size="5px" font-weight="bold" font-family="'Helvetica Neue', Helvetica, Arial-Unicode, Arial, Sans-serif">Created by Lagot Design</text><text x="0" y="84" fill="#000000" font-size="5px" font-weight="bold" font-family="'Helvetica Neue', Helvetica, Arial-Unicode, Arial, Sans-serif">from the Noun Project</text></svg>