<svg xmlns="http://www.w3.org/2000/svg" xmlns:xlink="http://www.w3.org/1999/xlink" xmlns:serif="http://www.serif.com/" viewBox="0 0 2225 2225" version="1.1" xml:space="preserve" style="" x="0px" y="0px" fill-rule="evenodd" clip-rule="evenodd" stroke-linejoin="round" stroke-miterlimit="2"><path d="M778.214,620.697c-0.87,0.774 -1.726,1.574 -2.567,2.399c-33.694,32.133 -54.697,77.473 -54.697,127.721c0,-0 0,720.591 0,720.591c0,97.473 79.034,176.48 176.479,176.48c0,-0 1118.25,-0 1118.25,-0c97.452,-0 176.479,-79.007 176.479,-176.48l0,-720.428l0.004,-0.169c-0.003,-49.437 -20.335,-94.123 -53.083,-126.155c-0.915,-0.924 -1.851,-1.818 -2.805,-2.684c-31.554,-29.546 -73.965,-47.634 -120.595,-47.634c0,-0 -1118.25,-0 -1118.25,-0c-45.955,-0 -87.815,17.571 -119.215,46.359Zm-224.447,761.036l-104.167,0c-39.91,0 -72.312,32.402 -72.312,72.313c-0.001,39.91 32.402,72.312 72.312,72.312l104.167,0c39.91,0 72.312,-32.402 72.312,-72.312c0,-39.911 -32.402,-72.313 -72.312,-72.313Zm746.615,-207.869l-329.387,329.399l971.115,-0.001l-329.25,-329.249l-109.489,93.038c-27.032,22.969 -66.733,22.94 -93.731,-0.069l-109.258,-93.118Zm-434.807,230.288l324.386,-324.398l-324.386,-276.467l0,600.865Zm857.857,-324.097l324.097,324.096l0,-599.495l-324.097,275.399Zm-1169.66,-41.255l-277.779,-0c-39.911,-0 -72.313,32.402 -72.313,72.312c-0,39.911 32.402,72.313 72.312,72.313l277.78,-0c39.91,-0 72.312,-32.402 72.312,-72.313c0,-39.91 -32.402,-72.312 -72.312,-72.312Zm902.849,78.193l468.412,-398.031l-935.431,0l467.019,398.031Zm-902.849,-421.126l-451.388,-0c-39.91,-0 -72.312,32.402 -72.312,72.312c-0,39.911 32.402,72.313 72.312,72.313l451.388,-0c39.91,-0 72.312,-32.402 72.312,-72.313c0,-39.91 -32.402,-72.312 -72.312,-72.312Z" fill="#ffffff"/></svg>