<svg xmlns="http://www.w3.org/2000/svg" data-name="Layer 1" viewBox="0 0 100 125" x="0px" y="0px"><title>96all</title><path d="M50.93,36.11A11.64,11.64,0,1,0,39.29,24.47,11.65,11.65,0,0,0,50.93,36.11Zm0-15.28a3.64,3.64,0,1,1-3.64,3.64A3.64,3.64,0,0,1,50.93,20.83Z"/><path d="M91.09,53.1V17.81a14,14,0,0,0-14-14H14.27a14,14,0,0,0-14,14V62.35a14,14,0,0,0,14,14h37A24.45,24.45,0,1,0,91.09,53.1ZM8.27,62.35V17.81a6,6,0,0,1,6-6H77.09a6,6,0,0,1,6,6V48.56a24.42,24.42,0,0,0-7.82-1.27l-.9,0-7.3-7a10,10,0,0,0-13.19-.61l-3.3,2.64-7.28-8A10,10,0,0,0,36,31a9.91,9.91,0,0,0-7.36,3.11h0L9.6,54.19a4,4,0,0,0,2.9,6.76H53.34a24.25,24.25,0,0,0-2.28,7.41H14.27A6,6,0,0,1,8.27,62.35ZM60,52.66l-4-4.43,2.9-2.32a2,2,0,0,1,2.64.12l3.6,3.47A24.49,24.49,0,0,0,60,52.66Zm-10.55.29H21.82L34.45,39.65A2.17,2.17,0,0,1,35.93,39a2,2,0,0,1,1.46.65ZM75.27,88.19A16.38,16.38,0,0,1,58.85,72.58c0-.08,0-.15,0-.22a3.94,3.94,0,0,0-.05-.5s0-.08,0-.11A16.47,16.47,0,0,1,75.27,55.28,16.45,16.45,0,0,1,91.73,71.74,16.47,16.47,0,0,1,75.27,88.19Z"/><path d="M79.27,67.74V62.47a4,4,0,0,0-8,0v5.27H66a4,4,0,0,0,0,8h5.27V81a4,4,0,0,0,8,0V75.74h5.27a4,4,0,0,0,0-8Z"/><text x="0" y="115" fill="#000000" font-size="5px" font-weight="bold" font-family="'Helvetica Neue', Helvetica, Arial-Unicode, Arial, Sans-serif">Created by Lakshisha</text><text x="0" y="120" fill="#000000" font-size="5px" font-weight="bold" font-family="'Helvetica Neue', Helvetica, Arial-Unicode, Arial, Sans-serif">from the Noun Project</text></svg>