<svg xmlns="http://www.w3.org/2000/svg" viewBox="0 0 100 125" fill="none" x="0px" y="0px"><path d="M50 98C37.2696 98 25.0606 92.9429 16.0589 83.9411C7.05713 74.9394 2 62.7304 2 50C2 37.2696 7.05713 25.0606 16.0589 16.0589C25.0606 7.05713 37.2696 2 50 2C62.7304 2 74.9394 7.05713 83.9411 16.0589C92.9429 25.0606 98 37.2696 98 50C98 62.7304 92.9429 74.9394 83.9411 83.9411C74.9394 92.9429 62.7304 98 50 98ZM47 20C46.2043 20 45.4413 20.3161 44.8787 20.8787C44.3161 21.4413 44 22.2044 44 23V56C44 57.5913 44.6321 59.1174 45.7574 60.2426C46.8826 61.3679 48.4087 62 50 62C51.5913 62 53.1174 61.3679 54.2426 60.2426C55.3679 59.1174 56 57.5913 56 56V23C56 22.2044 55.6839 21.4413 55.1213 20.8787C54.5587 20.3161 53.7957 20 53 20H47ZM44 74C44 77.336 46.688 80 50 80C53.336 80 56 77.312 56 74C56 70.664 53.312 68 50 68C46.664 68 44 70.688 44 74Z" fill="black"/><text x="0" y="115" fill="#000000" font-size="5px" font-weight="bold" font-family="'Helvetica Neue', Helvetica, Arial-Unicode, Arial, Sans-serif">Created by Lightspeed Flame</text><text x="0" y="120" fill="#000000" font-size="5px" font-weight="bold" font-family="'Helvetica Neue', Helvetica, Arial-Unicode, Arial, Sans-serif">from the Noun Project</text></svg>