<svg xmlns="http://www.w3.org/2000/svg" viewBox="0 0 48 60" x="0px" y="0px"><title>Artboard 38</title><g><path d="M37,19H34V11a10,10,0,0,0-20,0v8H11a2,2,0,0,0-2,2V43a4.0039,4.0039,0,0,0,4,4H35a4.0039,4.0039,0,0,0,4-4V21A2,2,0,0,0,37,19ZM18,11a6,6,0,0,1,12,0v8H18ZM35,43H13V23H35ZM22,28h4c2.58,0,2.575,4,0,4v4c0,2.58-4,2.575-4,0V32C19.42,32,19.425,28,22,28Z"/></g><text x="0" y="63" fill="#000000" font-size="5px" font-weight="bold" font-family="'Helvetica Neue', Helvetica, Arial-Unicode, Arial, Sans-serif">Created by Muhammad Tajudin</text><text x="0" y="68" fill="#000000" font-size="5px" font-weight="bold" font-family="'Helvetica Neue', Helvetica, Arial-Unicode, Arial, Sans-serif">from the Noun Project</text></svg>