<?xml version="1.0" encoding="UTF-8"?>
<svg width="1200pt" height="1200pt" version="1.1" viewBox="0 0 1200 1200" xmlns="http://www.w3.org/2000/svg">
 <path d="m600 0c-159.13 0-311.74 63.215-424.27 175.73-112.52 112.52-175.73 265.14-175.73 424.27s63.215 311.74 175.73 424.27c112.52 112.52 265.14 175.73 424.27 175.73s311.74-63.215 424.27-175.73c112.52-112.52 175.73-265.14 175.73-424.27-0.003906-159.13-63.219-311.74-175.74-424.26-112.52-112.52-265.13-175.73-424.26-175.74zm0 1063.6c-21.699 0-42.512-8.6211-57.855-23.965s-23.961-36.152-23.961-57.855c0-21.699 8.6172-42.508 23.961-57.852s36.156-23.965 57.855-23.965 42.512 8.6211 57.855 23.965 23.961 36.152 23.961 57.852c0.03125 21.711-8.582 42.539-23.93 57.887-15.352 15.352-36.18 23.961-57.887 23.934zm81.816-354.55c0 29.23-15.594 56.242-40.906 70.859-25.316 14.613-56.504 14.613-81.82 0-25.312-14.617-40.906-41.629-40.906-70.859v-490.91c0-29.234 15.594-56.242 40.906-70.859 25.316-14.613 56.504-14.613 81.82 0 25.312 14.617 40.906 41.625 40.906 70.859z"/>
</svg>
