<svg xmlns:dc="http://purl.org/dc/elements/1.1/" xmlns:cc="http://creativecommons.org/ns#" xmlns:rdf="http://www.w3.org/1999/02/22-rdf-syntax-ns#" xmlns:svg="http://www.w3.org/2000/svg" xmlns="http://www.w3.org/2000/svg" xmlns:sodipodi="http://sodipodi.sourceforge.net/DTD/sodipodi-0.dtd" xmlns:inkscape="http://www.inkscape.org/namespaces/inkscape" fill="#000000" version="1.1" x="0px" y="0px" viewBox="0 0 100 125"><path style="font-size:medium;font-style:normal;font-variant:normal;font-weight:normal;font-stretch:normal;text-indent:0;text-align:start;text-decoration:none;line-height:normal;letter-spacing:normal;word-spacing:normal;text-transform:none;direction:ltr;block-progression:tb;writing-mode:lr-tb;text-anchor:start;baseline-shift:baseline;opacity:1;color:#000000;fill:#000000;fill-opacity:1;stroke:none;stroke-width:6;marker:none;visibility:visible;display:inline;overflow:visible;enable-background:accumulate;font-family:Sans;-inkscape-font-specification:Sans" d="M 12 15 C 8.1738917 15 5 18.173892 5 22 L 5 64 C 5 67.826108 8.1738917 71 12 71 L 59.46875 71 C 61.297784 78.995932 68.467535 85 77 85 C 86.905593 85 95 76.905594 95 67 C 95 58.467535 88.995932 51.297784 81 49.46875 L 81 22 C 81 18.173892 77.826108 15 74 15 L 12 15 z M 12 21 L 74 21 C 74.605892 21 75 21.394108 75 22 L 75 49.125 C 72.067643 49.451441 69.33985 50.491693 67 52.0625 L 55.9375 42.71875 A 3.0003 3.0003 0 0 0 52.375 42.46875 L 43.15625 48.34375 L 30.84375 38.65625 A 3.0003 3.0003 0 0 0 28.90625 38 A 3.0003 3.0003 0 0 0 27.34375 38.5 L 11 49.25 L 11 22 C 11 21.394108 11.394108 21 12 21 z M 46 24 C 41.064972 24 37 28.064971 37 33 C 37 37.935029 41.064972 42 46 42 C 50.935028 42 55 37.935029 55 33 C 55 28.064971 50.935028 24 46 24 z M 46 30 C 47.692388 30 49 31.307612 49 33 C 49 34.692388 47.692388 36 46 36 C 44.307613 36 43 34.692388 43 33 C 43 31.307612 44.307613 30 46 30 z M 28.84375 44.6875 L 41.15625 54.34375 A 3.0003 3.0003 0 0 0 44.625 54.53125 L 53.75 48.71875 L 62.625 56.21875 C 60.739662 58.726201 59.488946 61.730742 59.125 65 L 12 65 C 11.394108 65 11 64.605892 11 64 L 11 56.40625 L 28.84375 44.6875 z M 77 55 C 83.662949 55 89 60.337051 89 67 C 89 73.662949 83.662949 79 77 79 C 70.337051 79 65 73.662949 65 67 C 65 60.337051 70.337051 55 77 55 z M 76.96875 57.9375 A 3.0003 3.0003 0 0 0 76.65625 57.96875 A 3.0003 3.0003 0 0 0 74 61 L 74 64 L 71 64 A 3.0003 3.0003 0 0 0 70.6875 64 A 3.0040663 3.0040663 0 1 0 71 70 L 74 70 L 74 73 A 3.0003 3.0003 0 1 0 80 73 L 80 70 L 83 70 A 3.0003 3.0003 0 1 0 83 64 L 80 64 L 80 61 A 3.0003 3.0003 0 0 0 76.96875 57.9375 z "/><text x="0" y="115" fill="#000000" font-size="5px" font-weight="bold" font-family="'Helvetica Neue', Helvetica, Arial-Unicode, Arial, Sans-serif">Created by artworkbean</text><text x="0" y="120" fill="#000000" font-size="5px" font-weight="bold" font-family="'Helvetica Neue', Helvetica, Arial-Unicode, Arial, Sans-serif">from the Noun Project</text></svg>