<svg xmlns="http://www.w3.org/2000/svg" xmlns:xlink="http://www.w3.org/1999/xlink" version="1.1" x="0px" y="0px" viewBox="0 0 32 32" enable-background="new 0 0 32 32" xml:space="preserve"><g><path d="M16,2C8.268,2,2,8.268,2,16s6.268,14,14,14s14-6.268,14-14S23.732,2,16,2z M24.061,12.176l-9.771,9.77   c-0.281,0.281-0.663,0.439-1.061,0.439h-0.001c-0.398,0-0.78-0.159-1.062-0.441l-4.229-4.244c-0.585-0.587-0.583-1.536,0.004-2.121   c0.588-0.585,1.537-0.583,2.121,0.004l3.169,3.18l8.708-8.707c0.586-0.586,1.535-0.586,2.121,0S24.646,11.59,24.061,12.176z"/></g></svg>