<svg xmlns="http://www.w3.org/2000/svg" xmlns:xlink="http://www.w3.org/1999/xlink" xmlns:serif="http://www.serif.com/" viewBox="0 0 32 40" version="1.1" xml:space="preserve" style="" x="0px" y="0px" fill-rule="evenodd" clip-rule="evenodd" stroke-linejoin="round" stroke-miterlimit="2"><g transform="matrix(1,0,0,1,0,-144)"><path d="M30,155C30,154.204 29.684,153.441 29.121,152.879C28.559,152.316 27.796,152 27,152C23.168,152 14.832,152 11,152C10.204,152 9.441,152.316 8.879,152.879C8.316,153.441 8,154.204 8,155C8,157.444 8,161.556 8,164C8,164.796 8.316,165.559 8.879,166.121C9.441,166.684 10.204,167 11,167C14.832,167 23.168,167 27,167C27.796,167 28.559,166.684 29.121,166.121C29.684,165.559 30,164.796 30,164C30,161.556 30,157.444 30,155ZM15.969,161.267L11.953,165L25.957,165L21.94,161.267L20.997,162.144C19.846,163.214 18.064,163.214 16.912,162.144L15.969,161.267ZM5,163L3,163C2.448,163 2,163.448 2,164C2,164.552 2.448,165 3,165L5,165C5.552,165 6,164.552 6,164C6,163.448 5.552,163 5,163ZM28,155.636L28,164C28,164.053 27.996,164.105 27.988,164.157L23.409,159.902L28,155.636ZM10,155.72L14.5,159.902L10.003,164.081C10.001,164.054 10,164.027 10,164L10,155.72ZM5,159L3,159C2.448,159 2,159.448 2,160C2,160.552 2.448,161 3,161L5,161C5.552,161 6,160.552 6,160C6,159.448 5.552,159 5,159ZM11.087,154L18.274,160.679C18.658,161.036 19.252,161.036 19.635,160.679L26.823,154L11.087,154ZM5,155L3,155C2.448,155 2,155.448 2,156C2,156.552 2.448,157 3,157L5,157C5.552,157 6,156.552 6,156C6,155.448 5.552,155 5,155Z"/></g><text x="0" y="47" fill="#000000" font-size="5px" font-weight="bold" font-family="'Helvetica Neue', Helvetica, Arial-Unicode, Arial, Sans-serif">Created by Nice Design</text><text x="0" y="52" fill="#000000" font-size="5px" font-weight="bold" font-family="'Helvetica Neue', Helvetica, Arial-Unicode, Arial, Sans-serif">from the Noun Project</text></svg>