<svg xmlns="http://www.w3.org/2000/svg" xmlns:xlink="http://www.w3.org/1999/xlink" xmlns:serif="http://www.serif.com/" viewBox="0 0 32 32" version="1.1" xml:space="preserve" style="" x="0px" y="0px" fill-rule="evenodd" clip-rule="evenodd" stroke-linejoin="round" stroke-miterlimit="2"><g transform="matrix(1,0,0,1,0,-432)"><path d="M19.529,460C20.628,461.227 22.225,462 24,462C27.311,462 30,459.311 30,456C30,454.225 29.227,452.628 28,451.529L28,437C28,436.204 27.684,435.441 27.121,434.879C26.559,434.316 25.796,434 25,434C20.48,434 9.52,434 5,434C4.204,434 3.441,434.316 2.879,434.879C2.316,435.441 2,436.204 2,437C2,441.52 2,452.48 2,457C2,457.796 2.316,458.559 2.879,459.121C3.441,459.684 4.204,460 5,460L19.529,460ZM24,452C26.208,452 28,453.792 28,456C28,458.208 26.208,460 24,460C21.792,460 20,458.208 20,456C20,453.792 21.792,452 24,452ZM23,455L22,455C21.448,455 21,455.448 21,456C21,456.552 21.448,457 22,457L23,457L23,458C23,458.552 23.448,459 24,459C24.552,459 25,458.552 25,458L25,457L26,457C26.552,457 27,456.552 27,456C27,455.448 26.552,455 26,455L25,455L25,454C25,453.448 24.552,453 24,453C23.448,453 23,453.448 23,454L23,455ZM25.775,450.267L20.97,446.148C20.76,445.969 20.485,445.884 20.21,445.914C19.935,445.944 19.685,446.087 19.519,446.308L14.8,452.6C14.638,452.817 14.394,452.958 14.126,452.992C13.857,453.026 13.587,452.95 13.375,452.781C13.375,452.781 9.773,449.899 9.773,449.899C9.375,449.581 8.802,449.613 8.441,449.973L4,454.414L4,457C4,457.265 4.105,457.52 4.293,457.707C4.48,457.895 4.735,458 5,458L18.342,458C18.12,457.374 18,456.701 18,456C18,452.689 20.689,450 24,450C24.618,450 25.214,450.094 25.775,450.267ZM26,447.826L26,437C26,436.735 25.895,436.48 25.707,436.293C25.52,436.105 25.265,436 25,436L5,436C4.735,436 4.48,436.105 4.293,436.293C4.105,436.48 4,436.735 4,437L4,451.586L7.027,448.559C8.108,447.478 9.829,447.382 11.023,448.337C11.023,448.337 13.819,450.575 13.819,450.575L17.919,445.108C18.417,444.444 19.167,444.016 19.992,443.926C20.816,443.835 21.642,444.09 22.272,444.63L26,447.826ZM9,439C7.344,439 6,440.344 6,442C6,443.656 7.344,445 9,445C10.656,445 12,443.656 12,442C12,440.344 10.656,439 9,439ZM9,441C9.552,441 10,441.448 10,442C10,442.552 9.552,443 9,443C8.448,443 8,442.552 8,442C8,441.448 8.448,441 9,441Z" fill="#cccccc"/></g></svg>