<svg xmlns="http://www.w3.org/2000/svg" data-name="Layer 1" viewBox="0 0 100 125" x="0px" y="0px"><title>Artboard 88</title><circle cx="62" cy="38" r="4"/><path d="M18,33a4,4,0,0,0,8,0V28a2,2,0,0,1,2-2h5a4,4,0,0,0,0-8H28A10,10,0,0,0,18,28Z"/><path d="M82,72V67a4,4,0,0,0-8,0v5a2,2,0,0,1-2,2H67a4,4,0,0,0,0,8h5A10,10,0,0,0,82,72Z"/><path d="M60,18a22.59,22.59,0,0,0-2.4.13A22,22,0,0,0,38.15,42.53L22.34,58.34A8,8,0,0,0,20,64v8a8,8,0,0,0,8,8h8a8,8,0,0,0,7.8-6.2,8,8,0,0,0,6-6,8,8,0,0,0,3.86-2.14l3.81-3.8A21.77,21.77,0,0,0,60,62a22,22,0,0,0,0-44ZM73.92,41.54A14,14,0,0,1,60,54H49a1,1,0,0,0-1,1v5H43a1,1,0,0,0-1,1v5H37a1,1,0,0,0-1,1v5H28V64L46,46V41h0a13.87,13.87,0,0,1,.17-3.45A14.07,14.07,0,0,1,58.46,26.08,14.53,14.53,0,0,1,60,26,14,14,0,0,1,73.92,41.54Z"/><text x="0" y="115" fill="#000000" font-size="5px" font-weight="bold" font-family="'Helvetica Neue', Helvetica, Arial-Unicode, Arial, Sans-serif">Created by Gregor Cresnar</text><text x="0" y="120" fill="#000000" font-size="5px" font-weight="bold" font-family="'Helvetica Neue', Helvetica, Arial-Unicode, Arial, Sans-serif">from the Noun Project</text></svg>